<svg width="12" height="14" viewBox="0 0 12 14" fill="none" xmlns="http://www.w3.org/2000/svg">
<path d="M10 9.66634C9.47467 9.66634 9 9.87301 8.644 10.2043L3.94 7.46634C3.97333 7.31301 4 7.15967 4 6.99967C4 6.83967 3.97333 6.68634 3.94 6.53301L8.64 3.79301C9 4.12634 9.47333 4.33301 10 4.33301C11.1067 4.33301 12 3.43967 12 2.33301C12 1.22634 11.1067 0.333008 10 0.333008C8.89333 0.333008 8 1.22634 8 2.33301C8 2.49301 8.02667 2.64634 8.06 2.79967L3.36 5.53967C3 5.20634 2.52667 4.99967 2 4.99967C0.893333 4.99967 0 5.89301 0 6.99967C0 8.10634 0.893333 8.99967 2 8.99967C2.52667 8.99967 3 8.79301 3.36 8.45967L8.05867 11.205C8.02112 11.356 8.00143 11.5108 8 11.6663C8 12.0619 8.1173 12.4486 8.33706 12.7775C8.55682 13.1064 8.86918 13.3627 9.23463 13.5141C9.60009 13.6655 10.0022 13.7051 10.3902 13.6279C10.7781 13.5507 11.1345 13.3603 11.4142 13.0806C11.6939 12.8008 11.8844 12.4445 11.9616 12.0565C12.0387 11.6686 11.9991 11.2664 11.8478 10.901C11.6964 10.5355 11.44 10.2232 11.1111 10.0034C10.7822 9.78364 10.3956 9.66634 10 9.66634V9.66634Z" fill="white"/>
</svg>
