<svg width="28" height="28" viewBox="0 0 28 28" fill="none" xmlns="http://www.w3.org/2000/svg">
<path d="M23.3335 13.9998V8.1665H25.6668V15.1665H23.3335M23.3335 19.8332H25.6668V17.4998H23.3335M11.6668 15.1665C14.7818 15.1665 21.0002 16.7298 21.0002 19.8332V23.3332H2.3335V19.8332C2.3335 16.7298 8.55183 15.1665 11.6668 15.1665ZM11.6668 4.6665C12.9045 4.6665 14.0915 5.15817 14.9667 6.03334C15.8418 6.90851 16.3335 8.09549 16.3335 9.33317C16.3335 10.5708 15.8418 11.7578 14.9667 12.633C14.0915 13.5082 12.9045 13.9998 11.6668 13.9998C10.4292 13.9998 9.24217 13.5082 8.367 12.633C7.49183 11.7578 7.00016 10.5708 7.00016 9.33317C7.00016 8.09549 7.49183 6.90851 8.367 6.03334C9.24217 5.15817 10.4292 4.6665 11.6668 4.6665M11.6668 17.3832C8.20183 17.3832 4.55016 19.0865 4.55016 19.8332V21.1165H18.7835V19.8332C18.7835 19.0865 15.1318 17.3832 11.6668 17.3832M11.6668 6.88317C11.017 6.88317 10.3939 7.14129 9.93442 7.60076C9.47495 8.06022 9.21683 8.68339 9.21683 9.33317C9.21683 9.98295 9.47495 10.6061 9.93442 11.0656C10.3939 11.525 11.017 11.7832 11.6668 11.7832C12.3166 11.7832 12.9398 11.525 13.3992 11.0656C13.8587 10.6061 14.1168 9.98295 14.1168 9.33317C14.1168 8.68339 13.8587 8.06022 13.3992 7.60076C12.9398 7.14129 12.3166 6.88317 11.6668 6.88317V6.88317Z" fill="black"/>
</svg>
